<svg xmlns="http://www.w3.org/2000/svg" fill="none" viewBox="0 0 135 40">
  <path d="M124.249 0H10.757c-.414 0-.823 0-1.235.002-.346.002-.688.008-1.037.013-.758.008-1.513.067-2.26.177A8.208 8.208 0 004.08.819a7.294 7.294 0 00-1.826 1.178 6.352 6.352 0 00-1.33 1.621A6.093 6.093 0 00.22 5.522a11.56 11.56 0 00-.202 2.002c-.01.306-.011.614-.017.92V31.56c.006.31.007.611.017.922.01.67.077 1.34.202 2.002a6.08 6.08 0 00.705 1.904 6.306 6.306 0 001.33 1.614c.533.477 1.15.875 1.826 1.179a8.248 8.248 0 002.144.63c.748.11 1.503.169 2.26.177.35.007.692.011 1.038.011.412.002.821.002 1.235.002H124.25c.406 0 .818 0 1.223-.002.344 0 .697-.004 1.04-.01a16.839 16.839 0 002.257-.177 8.363 8.363 0 002.152-.631A7.1 7.1 0 00132.746 38a6.498 6.498 0 001.333-1.614c.341-.6.576-1.242.698-1.904.126-.662.196-1.331.21-2.002.004-.311.004-.612.004-.922.009-.364.009-.725.009-1.094V9.536c0-.366 0-.73-.009-1.092 0-.306 0-.614-.004-.92a12.043 12.043 0 00-.21-2.002 6.096 6.096 0 00-.698-1.904c-.696-1.203-1.801-2.182-3.158-2.8a8.324 8.324 0 00-2.152-.627c-.746-.11-1.5-.169-2.257-.176-.343-.005-.696-.011-1.04-.013C125.067 0 124.655 0 124.249 0z" fill="#A6A6A6"/>
  <path d="M9.43 39.128c-.344 0-.68-.004-1.022-.01a16.153 16.153 0 01-2.112-.164 7.267 7.267 0 01-1.873-.548 6.137 6.137 0 01-1.578-1.017 5.41 5.41 0 01-1.154-1.396 5.276 5.276 0 01-.613-1.658c-.117-.62-.18-1.247-.188-1.875-.008-.211-.017-.913-.017-.913V8.44s.01-.691.017-.895a10.99 10.99 0 01.187-1.872c.108-.579.315-1.14.614-1.663.295-.517.682-.99 1.147-1.398.465-.412 1-.757 1.585-1.022a7.193 7.193 0 011.868-.545c.701-.1 1.41-.155 2.12-.163L9.43.87h116.14l1.032.013c.704.007 1.406.062 2.1.162a7.329 7.329 0 011.888.548c1.173.535 2.128 1.382 2.73 2.42a5.32 5.32 0 01.604 1.65c.118.624.183 1.255.197 1.888.003.283.003.587.003.89.009.375.009.732.009 1.092v20.933c0 .363 0 .718-.009 1.076 0 .325 0 .623-.004.93a11.447 11.447 0 01-.193 1.853 5.302 5.302 0 01-.611 1.67 5.586 5.586 0 01-1.147 1.387 6.153 6.153 0 01-1.582 1.022 7.236 7.236 0 01-1.885.55 15.96 15.96 0 01-2.112.163c-.331.007-.678.011-1.014.011l-1.226.002-114.92-.002z" fill="#000"/>
</svg>
