<svg xmlns="http://www.w3.org/2000/svg" fill="none" viewBox="0 0 30 30">
  <path d="M5.333 0h-4A1.333 1.333 0 000 1.333V28a1.333 1.333 0 001.333 1.333h4V0z" fill="#D6B1FF"/>
  <path d="M8 29.333h13.333V0H8v29.333zM14.667 24a1.333 1.333 0 110-2.667 1.333 1.333 0 010 2.667zm0-18.667a1.333 1.333 0 110 2.667 1.333 1.333 0 010-2.667zm0 8a1.333 1.333 0 110 2.667 1.333 1.333 0 010-2.667z" fill="#8C30F5"/>
  <path d="M28 0h-4v29.333h4A1.333 1.333 0 0029.333 28V1.333A1.333 1.333 0 0028 0z" fill="#2EC5CE"/>
</svg>
