<svg xmlns="http://www.w3.org/2000/svg" fill="none" viewBox="0 0 132 38">
  <path fill-rule="evenodd" clip-rule="evenodd" d="M83.015 10.995l-2.18-3.654-3.867 1.827-2.178-3.665-3.868 1.838-2.168-3.676-3.867 1.838-2.18-3.665-3.867 1.838L56.672 0l-3.878 1.838-8.203 26.508 9.968 3.027a5.249 5.249 0 012.238-2.882 5.317 5.317 0 016.8 1.011 5.22 5.22 0 011.29 3.406v.108c.021.476-.033.952-.175 1.427l10.132 3.081 8.17-26.53z" fill="#D61920"/>
  <path fill-rule="evenodd" clip-rule="evenodd" d="M53.142 26.162a1.07 1.07 0 01-.644-.365 1.055 1.055 0 01-.249-.694V12.13a1.063 1.063 0 01.316-.768 1.078 1.078 0 01.774-.313h9.445a4.267 4.267 0 013 1.224 4.203 4.203 0 011.249 2.97v9.86a1.074 1.074 0 01-.397.832 1.092 1.092 0 01-.9.227 1.07 1.07 0 01-.638-.368 1.055 1.055 0 01-.244-.691v-9.849c0-.545-.218-1.067-.606-1.452a2.078 2.078 0 00-1.464-.602h-2.059v11.892a1.076 1.076 0 01-.327.778 1.08 1.08 0 01-.959.292 1.07 1.07 0 01-.644-.365 1.055 1.055 0 01-.249-.694V13.2h-4.118v11.892a1.076 1.076 0 01-.39.835 1.092 1.092 0 01-.895.235zm15.71 5.654a1.07 1.07 0 01-.648-.37 1.054 1.054 0 01-.245-.7 1.093 1.093 0 011.079-1.081c.925 0 1.72-.584 1.982-1.46l1.122-3.708-3.671-12.184a1.075 1.075 0 01.342-1.16c.111-.091.24-.16.377-.202a1.12 1.12 0 01.819.09c.251.132.442.356.532.624l2.723 9.08 2.767-9.08c.131-.497.687-.833 1.253-.724l.077.01c.588.184.915.8.74 1.373l-3.78 12.498-1.198 4a4.325 4.325 0 01-1.526 2.162 4.27 4.27 0 01-2.549.843 1.055 1.055 0 01-.196-.01" fill="#FEFEFE"/>
  <path fill-rule="evenodd" clip-rule="evenodd" d="M2.266 23.795h2.135c.57 0 1.115-.225 1.518-.624.402-.4.629-.941.629-1.506v-6.238a2.116 2.116 0 00-.621-1.51 2.15 2.15 0 00-1.515-.63H2.266v10.507zm-1.34 2.227a1.113 1.113 0 01-.668-.382A1.098 1.098 0 010 24.92V5.546a1.106 1.106 0 01.327-.8 1.123 1.123 0 011.002-.324c.545.108.937.562.937 1.113v5.514h2.135a4.43 4.43 0 013.12 1.275 4.365 4.365 0 011.293 3.092v6.238A4.362 4.362 0 017.52 24.74a4.43 4.43 0 01-3.109 1.283H1.133a1.06 1.06 0 01-.218-.011l.011.01zM16.494 13.2a2.2 2.2 0 00-1.195.124 2.126 2.126 0 00-1.164 1.155c-.107.26-.16.538-.158.818v6.498a2.106 2.106 0 00.626 1.509 2.135 2.135 0 001.52.62c.57 0 1.116-.224 1.518-.623.403-.4.629-.942.629-1.506v-6.487a2.14 2.14 0 00-1.776-2.108zM15.35 26.119a4.41 4.41 0 01-2.612-1.498 4.347 4.347 0 01-1.027-2.816v-6.497a4.296 4.296 0 011.297-3.092 4.395 4.395 0 013.116-1.275c1.167 0 2.287.46 3.112 1.279a4.35 4.35 0 011.289 3.088v6.497c0 1.168-.458 2.27-1.296 3.103a4.383 4.383 0 01-3.105 1.276c-.26 0-.518-.02-.774-.065zM28.206 13.21a2.19 2.19 0 00-.37-.033 2.139 2.139 0 00-1.525.618 2.107 2.107 0 00-.622 1.512v6.497a2.104 2.104 0 00.625 1.51 2.135 2.135 0 001.521.62 2.15 2.15 0 001.52-.62 2.118 2.118 0 00.626-1.51v-6.497a2.138 2.138 0 00-1.776-2.097zm-1.144 12.908a4.409 4.409 0 01-2.606-1.501 4.347 4.347 0 01-1.022-2.813v-6.497a4.35 4.35 0 01.415-1.843 4.382 4.382 0 011.16-1.498 4.424 4.424 0 013.589-.962 4.409 4.409 0 012.615 1.491 4.347 4.347 0 011.034 2.812v6.497a4.307 4.307 0 01-1.307 3.103 4.382 4.382 0 01-3.105 1.276 4.59 4.59 0 01-.773-.065zm9.01.043a1.114 1.114 0 01-.67-.381 1.098 1.098 0 01-.257-.722V5.546c0-.303.11-.595.327-.8a1.124 1.124 0 01.991-.303c.545.087.948.552.948 1.103v11.546l5.208-5.795a1.164 1.164 0 011.582-.1 1.112 1.112 0 01.38 1.067 1.11 1.11 0 01-.263.525l-3.933 4.357 4.064 7.384a1.076 1.076 0 01.109.832 1.1 1.1 0 01-.556.67c-.23.132-.5.178-.762.13a1.126 1.126 0 01-.785-.54l-3.66-6.681-1.395 1.524v4.594c0 .299-.12.585-.332.796-.212.21-.5.329-.8.329-.077 0-.142 0-.219-.022h.022zm49.906-.01a4.19 4.19 0 01-1.704-.692 4.152 4.152 0 01-1.237-1.352 1.138 1.138 0 01-.11-.865c.088-.28.273-.519.523-.67.233-.126.503-.168.763-.119.327.054.621.249.785.54.294.498.762.822 1.34.92a2.02 2.02 0 001.677-.476c.436-.4.654-.973.6-1.535a1.828 1.828 0 00-.818-1.449l-3.05-2.151a4.107 4.107 0 01-1.212-1.32 4.075 4.075 0 01-.531-1.707c-.04-.606.06-1.213.293-1.775a4 4 0 011.047-1.469 4.127 4.127 0 013.355-1.049c1.286.217 2.332.952 2.93 1.99a1.138 1.138 0 01-.413 1.535 1.13 1.13 0 01-.763.13 1.128 1.128 0 01-.784-.54 1.811 1.811 0 00-1.286-.866 1.789 1.789 0 00-1.525.444 1.838 1.838 0 00-.577 1.448c.021.53.327 1.049.784 1.352l3.05 2.108a4.095 4.095 0 011.765 3.168c.05.623-.046 1.25-.282 1.83a4.023 4.023 0 01-1.08 1.51 4.258 4.258 0 01-3.464 1.081l-.087-.022h.011zm8.748.032a1.135 1.135 0 01-.67-.383 1.12 1.12 0 01-.267-.72V5.568a1.106 1.106 0 01.329-.799 1.123 1.123 0 01.804-.326l.218.011c.545.108.915.551.915 1.114v5.513h2.146a4.418 4.418 0 013.116 1.276 4.348 4.348 0 011.286 3.091v9.622a1.105 1.105 0 01-.399.858 1.125 1.125 0 01-.92.245 1.128 1.128 0 01-.936-1.114v-9.621a2.106 2.106 0 00-.63-1.502 2.136 2.136 0 00-1.517-.617h-2.146V25.07a1.106 1.106 0 01-.402.863 1.127 1.127 0 01-.927.24v.01zm15.557-12.962a2.15 2.15 0 00-1.754.462 2.104 2.104 0 00-.762 1.635v6.497c-.002.28.052.556.159.814a2.13 2.13 0 001.976 1.316 2.143 2.143 0 001.984-1.31 2.08 2.08 0 00.162-.82v-6.508a2.12 2.12 0 00-1.776-2.097l.011.01zm-1.155 12.886a4.396 4.396 0 01-2.604-1.495 4.334 4.334 0 01-1.023-2.808v-6.497a4.375 4.375 0 011.57-3.349 4.428 4.428 0 013.593-.964 4.41 4.41 0 012.62 1.495 4.354 4.354 0 011.03 2.818v6.497a4.295 4.295 0 01-1.307 3.092 4.392 4.392 0 01-3.879 1.211m22.584-13.783a1.07 1.07 0 00-.109-.821 1.16 1.16 0 00-.74-.52 1.13 1.13 0 00-.813.156 1.115 1.115 0 00-.484.666c0 .055-1.22 4.93-2.179 8.638l-.022.076-.021-.076-2.179-8.627a1.06 1.06 0 00-.872-.832 1.164 1.164 0 00-.196-.022c-.501 0-.937.346-1.078.843-.011.055-1.231 4.93-2.179 8.638l-.022.076-.022-.076c-.926-3.708-2.179-8.584-2.179-8.638a1.102 1.102 0 00-.882-.821 1.122 1.122 0 00-1.002.329 1.108 1.108 0 00-.273 1.011l3.279 13.006a1.128 1.128 0 001.079.843c.534 0 .959-.346 1.068-.843l2.178-8.638.033-.076.022.076a1762.92 1762.92 0 012.179 8.648 1.147 1.147 0 001.067.832 1.066 1.066 0 001.079-.842l3.268-13.006z" fill="#333545"/>
</svg>
